<svg width="188" height="188" xmlns="http://www.w3.org/2000/svg" preserveAspectRatio="xMinYMid" class="header-logo header-logo-wordmark">

 <g>
  <title>background</title>
  <rect fill="none" id="canvas_background" height="190" width="190" y="-1" x="-1"/>
 </g>
 <g>
  <title>Layer 1</title>
  <rect id="svg_25" height="72" width="335" y="141.5" x="-20.5" stroke-width="0" stroke="#000" fill="#00b6d3"/>
  <rect id="svg_24" height="170" width="592" y="-14.85001" x="-13.02502" stroke-width="0" stroke="#000" fill="#00b6d3"/>
  <g id="svg_1">
   <g id="svg_2">
    <path id="svg_3" d="m276.16,84.31l-18.69,53.3l-12,0l-24.88,-73.61l15.08,0l16.84,52.57l18,-52.88l12.29,0l18.08,53l16.8,-52.69l13.64,0l-24.17,73.65l-12.4,0l-18.59,-53.34z"/>
    <path id="svg_4" d="m349.51,138c-12.8,0 -26.41,-9.45 -26.41,-27s13.61,-27 26.41,-27c5.12,0 12.39,2 16,7.48l0.76,1.16l0,-7.64l12.92,0l0,52.29l-12.93,0l0,-8.11l-0.77,1.22c-3.49,5.6 -11.49,7.6 -15.98,7.6zm1.92,-41.62c-7.37,0 -15,5.48 -15,14.65a14.67,14.67 0 0 0 15,14.65c7.39,0 14.87,-5 14.87,-14.65s-7.67,-14.67 -14.88,-14.67l0.01,0.02z"/>
    <path id="svg_5" d="m409.36,159.3l-13.22,0l9.92,-22.93l-23.55,-51.37l14.88,0l15.39,35.53l15.38,-35.53l13.43,0l-32.23,74.3z"/>
    <path id="svg_6" d="m457.35,113.54l0,23.76l-13,0l0,-75.47l13,0l0,44.48l24,-21.28l17.25,0l-27.82,24.38l29.22,27.89l-17.66,0l-24.99,-23.76z"/>
    <path id="svg_7" d="m549.95,111.88l0,1.45l-41.52,0c0.52,8.16 6.5,14.36 15.18,14.36c8.37,0 11.78,-4.23 12.71,-5.68l13,0c-0.83,5.37 -8,16.63 -25.72,16.63c-16.94,0 -28.4,-11.77 -28.4,-27.47c0,-16.22 11.36,-27.47 27.37,-27.47s27.38,11.14 27.38,28.18zm-41.11,-7.64l27.27,0c-2,-6.61 -6.82,-10.33 -13.53,-10.33c-7.13,0.01 -12.09,3.82 -13.74,10.33z"/>
   </g>
   <g id="svg_8">
    <circle id="svg_9" r="4.25" cy="75.68" cx="5.25"/>
    <circle id="svg_10" r="4.96" cy="104.03" cx="26.15"/>
    <circle id="svg_11" r="6.38" cy="132.38" cx="47.04"/>
    <circle id="svg_12" r="7.09" cy="104.03" cx="67.93"/>
    <circle id="svg_13" r="8.5" cy="75.68" cx="88.82"/>
    <circle id="svg_14" r="10.63" cy="104.03" cx="109.72"/>
    <circle id="svg_15" r="12.75998" cy="132.38" cx="130.61"/>
    <circle id="svg_16" r="13.47" cy="104.03" cx="151.5"/>
    <circle id="svg_17" r="14.17" cy="75.68" cx="172.4"/>
    <circle id="svg_18" r="12.05" cy="75.68" cx="130.61"/>
    <circle id="svg_19" r="7.09" cy="47.34" cx="67.93"/>
    <circle id="svg_20" r="11.33999" cy="47.34" cx="151.5"/>
    <circle id="svg_21" r="10.63" cy="47.34" cx="109.72"/>
    <circle id="svg_22" r="6.38" cy="75.68" cx="47.04"/>
    <circle id="svg_23" r="4.96" cy="47.34" cx="26.15"/>
   </g>
  </g>
 </g>
</svg>